name rise49.5252peak65.1548fall88.8305.mot
datacolumns 19
datarows 30
range 11.31828100000000 11.36661800000000
endheader
time	ground_force1_vx	ground_force1_vy	ground_force1_vz	ground_force1_px	ground_force1_py	ground_force1_pz	ground_force2_vx	ground_force2_vy	ground_force2_vz	ground_force2_px	ground_force2_py	ground_force2_pz	ground_torque1_x	ground_torque1_y	ground_torque1_z	ground_torque2_x	ground_torque2_y	ground_torque2_z	
11.31828100000000	10.33717800000000	684.21396600000003	41.65186200000000	0.28132100000000	0.00000000000000	0.10079000000000	0.00000000000000	0.00000000000000	0.00000000000000	0.00000000000000	0.00000000000000	0.00000000000000	0.00000000000000	22.27598500000000	0.00000000000000	0.00000000000000	0.00000000000000	0.00000000000000	
11.31995600000000	10.07842300000000	685.05845999999997	41.76691500000000	0.28063200000000	0.00000000000000	0.10086300000000	0.00000000000000	0.00000000000000	0.00000000000000	0.00000000000000	0.00000000000000	0.00000000000000	0.00000000000000	22.36347000000000	0.00000000000000	0.00000000000000	0.00000000000000	0.00000000000000	
11.32161800000000	9.81014800000000	685.96965699999998	41.88983300000000	0.27997700000000	0.00000000000000	0.10093400000000	0.00000000000000	0.00000000000000	0.00000000000000	0.00000000000000	0.00000000000000	0.00000000000000	0.00000000000000	22.45903800000000	0.00000000000000	0.00000000000000	0.00000000000000	0.00000000000000	
11.32328200000000	9.53171800000000	686.94493000000000	42.02007400000000	0.27935300000000	0.00000000000000	0.10100300000000	0.00000000000000	0.00000000000000	0.00000000000000	0.00000000000000	0.00000000000000	0.00000000000000	0.00000000000000	22.56237000000000	0.00000000000000	0.00000000000000	0.00000000000000	0.00000000000000	
11.32494900000000	9.24252900000000	687.98166300000003	42.15710600000000	0.27875800000000	0.00000000000000	0.10106900000000	0.00000000000000	0.00000000000000	0.00000000000000	0.00000000000000	0.00000000000000	0.00000000000000	0.00000000000000	22.67314200000000	0.00000000000000	0.00000000000000	0.00000000000000	0.00000000000000	
11.32662100000000	8.94200600000000	689.07726200000002	42.30040200000000	0.27819100000000	0.00000000000000	0.10113300000000	0.00000000000000	0.00000000000000	0.00000000000000	0.00000000000000	0.00000000000000	0.00000000000000	0.00000000000000	22.79102600000000	0.00000000000000	0.00000000000000	0.00000000000000	0.00000000000000	
11.32828500000000	8.62960900000000	690.22916299999997	42.44945000000000	0.27764800000000	0.00000000000000	0.10119500000000	0.00000000000000	0.00000000000000	0.00000000000000	0.00000000000000	0.00000000000000	0.00000000000000	0.00000000000000	22.91569100000000	0.00000000000000	0.00000000000000	0.00000000000000	0.00000000000000	
11.32995100000000	8.30483600000000	691.43483700000002	42.60374600000000	0.27712800000000	0.00000000000000	0.10125500000000	0.00000000000000	0.00000000000000	0.00000000000000	0.00000000000000	0.00000000000000	0.00000000000000	0.00000000000000	23.04680600000000	0.00000000000000	0.00000000000000	0.00000000000000	0.00000000000000	
11.33161600000000	7.96721900000000	692.69179599999995	42.76280300000000	0.27662900000000	0.00000000000000	0.10131200000000	0.00000000000000	0.00000000000000	0.00000000000000	0.00000000000000	0.00000000000000	0.00000000000000	0.00000000000000	23.18403500000000	0.00000000000000	0.00000000000000	0.00000000000000	0.00000000000000	
11.33328700000000	7.61633000000000	693.99760500000002	42.92614800000000	0.27614700000000	0.00000000000000	0.10136700000000	0.00000000000000	0.00000000000000	0.00000000000000	0.00000000000000	0.00000000000000	0.00000000000000	0.00000000000000	23.32704600000000	0.00000000000000	0.00000000000000	0.00000000000000	0.00000000000000	
11.33495300000000	7.25178000000000	695.34987899999999	43.09332400000000	0.27568100000000	0.00000000000000	0.10142000000000	0.00000000000000	0.00000000000000	0.00000000000000	0.00000000000000	0.00000000000000	0.00000000000000	0.00000000000000	23.47550400000000	0.00000000000000	0.00000000000000	0.00000000000000	0.00000000000000	
11.33661700000000	6.87322500000000	696.74629400000003	43.26389300000000	0.27522800000000	0.00000000000000	0.10147100000000	0.00000000000000	0.00000000000000	0.00000000000000	0.00000000000000	0.00000000000000	0.00000000000000	0.00000000000000	23.62907800000000	0.00000000000000	0.00000000000000	0.00000000000000	0.00000000000000	
11.33828100000000	6.48036000000000	698.18458899999996	43.43743500000000	0.27478600000000	0.00000000000000	0.10152000000000	0.00000000000000	0.00000000000000	0.00000000000000	0.00000000000000	0.00000000000000	0.00000000000000	0.00000000000000	23.78743700000000	0.00000000000000	0.00000000000000	0.00000000000000	0.00000000000000	
11.33995200000000	6.07292600000000	699.66256799999996	43.61355100000000	0.27435200000000	0.00000000000000	0.10156600000000	0.00000000000000	0.00000000000000	0.00000000000000	0.00000000000000	0.00000000000000	0.00000000000000	0.00000000000000	23.95025300000000	0.00000000000000	0.00000000000000	0.00000000000000	0.00000000000000	
11.34161400000000	5.65071000000000	701.17810599999996	43.79186100000000	0.27392400000000	0.00000000000000	0.10161100000000	0.00000000000000	0.00000000000000	0.00000000000000	0.00000000000000	0.00000000000000	0.00000000000000	0.00000000000000	24.11720200000000	0.00000000000000	0.00000000000000	0.00000000000000	0.00000000000000	
11.34328200000000	5.21354300000000	702.72914800000001	43.97200900000000	0.27349800000000	0.00000000000000	0.10165400000000	0.00000000000000	0.00000000000000	0.00000000000000	0.00000000000000	0.00000000000000	0.00000000000000	0.00000000000000	24.28796400000000	0.00000000000000	0.00000000000000	0.00000000000000	0.00000000000000	
11.34495200000000	4.76130500000000	704.31371400000000	44.15365900000000	0.27307300000000	0.00000000000000	0.10169500000000	0.00000000000000	0.00000000000000	0.00000000000000	0.00000000000000	0.00000000000000	0.00000000000000	0.00000000000000	24.46222300000000	0.00000000000000	0.00000000000000	0.00000000000000	0.00000000000000	
11.34661700000000	4.29392200000000	705.92989399999999	44.33649900000000	0.27264700000000	0.00000000000000	0.10173500000000	0.00000000000000	0.00000000000000	0.00000000000000	0.00000000000000	0.00000000000000	0.00000000000000	0.00000000000000	24.63966800000000	0.00000000000000	0.00000000000000	0.00000000000000	0.00000000000000	
11.34828200000000	3.81136900000000	707.57585600000004	44.52023900000000	0.27221700000000	0.00000000000000	0.10177300000000	0.00000000000000	0.00000000000000	0.00000000000000	0.00000000000000	0.00000000000000	0.00000000000000	0.00000000000000	24.81999400000000	0.00000000000000	0.00000000000000	0.00000000000000	0.00000000000000	
11.34995500000000	3.31366900000000	709.24984199999994	44.70461600000000	0.27178000000000	0.00000000000000	0.10180900000000	0.00000000000000	0.00000000000000	0.00000000000000	0.00000000000000	0.00000000000000	0.00000000000000	0.00000000000000	25.00290500000000	0.00000000000000	0.00000000000000	0.00000000000000	0.00000000000000	
11.35162200000000	2.80089300000000	710.95016499999997	44.88938500000000	0.27133500000000	0.00000000000000	0.10184400000000	0.00000000000000	0.00000000000000	0.00000000000000	0.00000000000000	0.00000000000000	0.00000000000000	0.00000000000000	25.18810800000000	0.00000000000000	0.00000000000000	0.00000000000000	0.00000000000000	
11.35328700000000	2.27316200000000	712.67521199999999	45.07433000000000	0.27087900000000	0.00000000000000	0.10187800000000	0.00000000000000	0.00000000000000	0.00000000000000	0.00000000000000	0.00000000000000	0.00000000000000	0.00000000000000	25.37531900000000	0.00000000000000	0.00000000000000	0.00000000000000	0.00000000000000	
11.35495100000000	1.73064500000000	714.42344100000003	45.25925700000000	0.27041000000000	0.00000000000000	0.10191000000000	0.00000000000000	0.00000000000000	0.00000000000000	0.00000000000000	0.00000000000000	0.00000000000000	0.00000000000000	25.56426000000000	0.00000000000000	0.00000000000000	0.00000000000000	0.00000000000000	
11.35661900000000	1.17356000000000	716.19337700000005	45.44399500000000	0.26992700000000	0.00000000000000	0.10194200000000	0.00000000000000	0.00000000000000	0.00000000000000	0.00000000000000	0.00000000000000	0.00000000000000	0.00000000000000	25.75466400000000	0.00000000000000	0.00000000000000	0.00000000000000	0.00000000000000	
11.35829000000000	0.60217100000000	717.98361199999999	45.62839800000000	0.26942800000000	0.00000000000000	0.10197200000000	0.00000000000000	0.00000000000000	0.00000000000000	0.00000000000000	0.00000000000000	0.00000000000000	0.00000000000000	25.94627000000000	0.00000000000000	0.00000000000000	0.00000000000000	0.00000000000000	
11.35994700000000	0.01679300000000	719.79280200000005	45.81234200000000	0.26891000000000	0.00000000000000	0.10200200000000	0.00000000000000	0.00000000000000	0.00000000000000	0.00000000000000	0.00000000000000	0.00000000000000	0.00000000000000	26.13882500000000	0.00000000000000	0.00000000000000	0.00000000000000	0.00000000000000	
11.36162200000000	-0.58221500000000	721.61965999999995	45.99572600000000	0.26837300000000	0.00000000000000	0.10203100000000	0.00000000000000	0.00000000000000	0.00000000000000	0.00000000000000	0.00000000000000	0.00000000000000	0.00000000000000	26.33208500000000	0.00000000000000	0.00000000000000	0.00000000000000	0.00000000000000	
11.36328700000000	-1.19444800000000	723.46295699999996	46.17847300000000	0.26781600000000	0.00000000000000	0.10205900000000	0.00000000000000	0.00000000000000	0.00000000000000	0.00000000000000	0.00000000000000	0.00000000000000	0.00000000000000	26.52581600000000	0.00000000000000	0.00000000000000	0.00000000000000	0.00000000000000	
11.36495300000000	-1.81945400000000	725.32151599999997	46.36052800000000	0.26723600000000	0.00000000000000	0.10208600000000	0.00000000000000	0.00000000000000	0.00000000000000	0.00000000000000	0.00000000000000	0.00000000000000	0.00000000000000	26.71979000000000	0.00000000000000	0.00000000000000	0.00000000000000	0.00000000000000	
11.36661800000000	-2.45674000000000	727.19420800000000	46.54185600000000	0.26663300000000	0.00000000000000	0.10211400000000	0.00000000000000	0.00000000000000	0.00000000000000	0.00000000000000	0.00000000000000	0.00000000000000	0.00000000000000	26.91379100000000	0.00000000000000	0.00000000000000	0.00000000000000	0.00000000000000	
